<svg width="141" height="27" viewBox="0 0 141 27" fill="none" xmlns="http://www.w3.org/2000/svg">
<path d="M0.663098 25.2641L0.650806 20.7187L9.31317 13.5134C9.88764 13.0346 10.3788 12.5863 10.7868 12.1685C11.2023 11.7432 11.5193 11.3067 11.7378 10.8591C11.9639 10.4116 12.0762 9.91505 12.0747 9.3696C12.0731 8.77111 11.9429 8.2601 11.6842 7.83656C11.433 7.41299 11.0837 7.08818 10.6361 6.86211C10.1885 6.62847 9.67303 6.51244 9.0897 6.51402C8.50637 6.5156 7.99153 6.63442 7.5452 6.87047C7.10644 7.10651 6.76647 7.45213 6.52527 7.90732C6.28408 8.36252 6.16436 8.91588 6.16613 9.56739L0.166147 9.58362C0.161722 7.94726 0.525334 6.53718 1.25698 5.35338C1.98863 4.16958 3.02405 3.25769 4.36323 2.6177C5.70242 1.97771 7.27352 1.65528 9.07655 1.6504C10.9402 1.64536 12.5546 1.94024 13.9199 2.53504C15.2927 3.12224 16.3517 3.95271 17.0971 5.02645C17.85 6.10018 18.2284 7.36052 18.2323 8.80749C18.2347 9.70142 18.0515 10.5921 17.6827 11.4794C17.3139 12.3592 16.6498 13.3345 15.6906 14.4053C14.7314 15.4761 13.3674 16.7525 11.5987 18.2346L9.42178 20.0586L9.42215 20.195L18.513 20.1704L18.5267 25.2158L0.663098 25.2641ZM31.4886 25.8172C29.3749 25.8153 27.5478 25.3316 26.0074 24.3661C24.4669 23.4005 23.2775 22.006 22.4392 20.1825C21.6009 18.359 21.1821 16.1708 21.1828 13.6177C21.1835 11.0571 21.5943 8.88173 22.4152 7.09163C23.2437 5.3015 24.4218 3.93846 25.9496 3.00251C27.4849 2.06653 29.3094 1.59569 31.4231 1.58997C33.5367 1.58426 35.3637 2.04902 36.9041 2.98425C38.4445 3.9119 39.6338 5.26854 40.472 7.05416C41.3101 8.83978 41.7289 11.0091 41.7282 13.5622C41.7351 16.1303 41.3244 18.3284 40.496 20.1564C39.6676 21.9844 38.4858 23.3853 36.9506 24.3592C35.4229 25.3255 33.6022 25.8114 31.4886 25.8172ZM31.4747 20.6808C32.5656 20.6779 33.458 20.1073 34.1519 18.969C34.8533 17.8232 35.197 16.0268 35.1828 13.5799C35.1784 11.9814 35.0158 10.675 34.6949 9.6607C34.374 8.64641 33.9325 7.8976 33.3706 7.41427C32.8087 6.92337 32.1641 6.6789 31.4368 6.68086C30.3459 6.68381 29.4573 7.23925 28.7709 8.34717C28.0845 9.45509 27.7369 11.206 27.7282 13.6C27.7251 15.2288 27.884 16.5693 28.205 17.6215C28.526 18.6661 28.9675 19.4376 29.5295 19.9361C30.099 20.4345 30.7474 20.6828 31.4747 20.6808ZM58.0318 20.7454L58.0284 19.5181C58.0258 18.5332 58.2354 17.6236 58.6574 16.7891C59.087 15.9546 59.7102 15.2825 60.527 14.7727C61.3438 14.2629 62.3393 14.0064 63.5136 14.0032C64.7181 14 65.7301 14.2472 66.5497 14.745C67.3768 15.2428 68.0036 15.9078 68.4301 16.74C68.8566 17.5721 69.0712 18.4882 69.0739 19.4882L69.0772 20.7155C69.0798 21.7003 68.8664 22.61 68.4368 23.4445C68.0148 24.279 67.3917 24.9511 66.5673 25.4609C65.7429 25.9707 64.736 26.2273 63.5466 26.2305C62.3572 26.2337 61.3528 25.9826 60.5332 25.4773C59.7137 24.9719 59.0906 24.3031 58.6641 23.4709C58.2452 22.6387 58.0344 21.7302 58.0318 20.7454ZM61.983 19.5074L61.9863 20.7347C61.9875 21.1665 62.0947 21.5942 62.308 22.0179C62.5288 22.434 62.9384 22.6412 63.5369 22.6396C64.1657 22.6379 64.578 22.4322 64.7739 22.0226C64.9773 21.6129 65.0784 21.1809 65.0772 20.7263L65.0739 19.499C65.0726 19.0445 64.9768 18.6054 64.7862 18.1816C64.5957 17.7579 64.1747 17.5469 63.5231 17.5487C62.9247 17.5503 62.5161 17.7635 62.2976 18.1884C62.0866 18.6132 61.9818 19.0529 61.983 19.5074ZM45.814 7.46017L45.8107 6.2329C45.808 5.23291 46.0214 4.31566 46.4509 3.48116C46.8881 2.64664 47.5151 1.97828 48.3319 1.47607C49.1487 0.973856 50.1367 0.721183 51.2958 0.718049C52.5003 0.714791 53.5123 0.962055 54.3319 1.45984C55.159 1.95761 55.7858 2.62258 56.2123 3.45476C56.6388 4.28695 56.8534 5.20304 56.8561 6.20303L56.8594 7.4303C56.8621 8.4303 56.6487 9.34376 56.2191 10.1707C55.7971 10.9976 55.1739 11.6584 54.3494 12.153C53.525 12.6477 52.5181 12.8966 51.3287 12.8998C50.1393 12.903 49.1349 12.6558 48.3153 12.158C47.4958 11.6602 46.8728 10.999 46.4463 10.1744C46.0274 9.34975 45.8166 8.44502 45.814 7.46017ZM49.8106 6.22208L49.814 7.44935C49.8152 7.9039 49.9224 8.33543 50.1356 8.74394C50.3489 9.15246 50.7434 9.35594 51.3191 9.35438C51.9479 9.35268 52.3602 9.14702 52.5561 8.7374C52.7595 8.32776 52.8606 7.89566 52.8594 7.44112L52.8561 6.21385C52.8549 5.75931 52.759 5.32017 52.5684 4.89644C52.3779 4.47271 51.9569 4.26173 51.3054 4.26349C50.7069 4.26511 50.306 4.48589 50.1026 4.92584C49.9068 5.35819 49.8095 5.79027 49.8106 6.22208ZM47.7936 25.1367L63.7306 1.82079L66.9579 1.81206L51.0209 25.128L47.7936 25.1367ZM102.069 13.3535C102.076 15.9444 101.578 18.1314 100.575 19.9144C99.5724 21.6898 98.2161 23.0382 96.5065 23.9595C94.7969 24.8732 92.889 25.3329 90.7829 25.3386C88.6617 25.3444 86.7438 24.8912 85.0292 23.9792C83.3222 23.0596 81.9625 21.7147 80.9501 19.9447C79.9453 18.1672 79.4394 15.9905 79.4325 13.4147C79.4255 10.8238 79.9196 8.64067 80.9148 6.86525C81.9175 5.08223 83.2699 3.73387 84.972 2.82017C86.6817 1.89888 88.5971 1.43536 90.7183 1.42963C92.8243 1.42393 94.7347 1.8771 96.4493 2.78913C98.1638 3.69359 99.5273 5.03461 100.54 6.81218C101.552 8.58217 102.062 10.7626 102.069 13.3535ZM95.5688 13.3711C95.565 11.9772 95.3762 10.8034 95.0024 9.84989C94.6362 8.88876 94.0926 8.16295 93.3715 7.67247C92.6581 7.1744 91.7786 6.92678 90.7332 6.92961C89.6877 6.93243 88.8058 7.18482 88.0875 7.68676C87.3767 8.18111 86.837 8.90985 86.4684 9.87297C86.1073 10.8285 85.9287 12.0032 85.9325 13.3972C85.9362 14.7911 86.1212 15.9686 86.4875 16.9298C86.8613 17.8833 87.4049 18.6091 88.1184 19.1072C88.8394 19.5977 89.7226 19.8415 90.7681 19.8387C91.8135 19.8358 92.6916 19.5872 93.4024 19.0929C94.1208 18.5909 94.6605 17.8622 95.0215 16.9067C95.3901 15.9436 95.5726 14.765 95.5688 13.3711ZM105.024 24.9819L104.961 1.7093L121.324 1.66505L121.338 6.75594L111.292 6.7831L111.303 10.7831L120.349 10.7586L120.363 15.8495L111.317 15.874L111.342 24.9649L105.024 24.9819ZM123.711 24.9314L123.648 1.65876L140.012 1.61451L140.025 6.7054L129.98 6.73257L129.991 10.7326L139.036 10.7081L139.05 15.799L130.005 15.8234L130.029 24.9143L123.711 24.9314Z" fill="white"/>
</svg>
