<svg width="156" height="26" viewBox="0 0 156 26" fill="none" xmlns="http://www.w3.org/2000/svg">
<mask id="path-1-outside-1_677_3151" maskUnits="userSpaceOnUse" x="-1.95327" y="-1.61046" width="160.078" height="29.4326" fill="black">
<rect fill="white" x="-1.95327" y="-1.61046" width="160.078" height="29.4326"/>
<path d="M22.3049 10.2112L15.8958 10.2285C15.8489 9.69836 15.7264 9.21763 15.5283 8.78634C15.3377 8.35504 15.0716 7.98454 14.7298 7.67486C14.3956 7.35758 13.9897 7.11625 13.512 6.95088C13.0342 6.77793 12.4923 6.69227 11.8863 6.69391C10.8256 6.69678 9.92862 6.95678 9.19517 7.47392C8.46929 7.99103 7.91826 8.73116 7.54208 9.6943C7.17347 10.6574 6.99099 11.8132 6.99463 13.1617C6.99848 14.5859 7.1911 15.7786 7.57249 16.7397C7.96144 17.6932 8.5202 18.4114 9.24878 18.8943C9.97734 19.3696 10.853 19.6058 11.8757 19.6031C12.459 19.6015 12.9816 19.5281 13.4433 19.3829C13.905 19.2302 14.3059 19.0132 14.6461 18.7319C14.9862 18.4507 15.2618 18.1129 15.4729 17.7183C15.6915 17.3162 15.838 16.8651 15.9124 16.3649L22.3216 16.393C22.2485 17.378 21.9747 18.3826 21.5002 19.4066C21.0257 20.423 20.3502 21.3643 19.4737 22.2303C18.6049 23.0887 17.5272 23.781 16.2407 24.3072C14.9543 24.8334 13.4588 25.0988 11.7542 25.1034C9.61786 25.1092 7.69996 24.6561 6.00052 23.744C4.30865 22.8319 2.96789 21.487 1.97823 19.7094C0.996147 17.9317 0.501622 15.755 0.494657 13.1793C0.487651 10.5884 0.981749 8.40522 1.97695 6.6298C2.97213 4.8468 4.31698 3.49846 6.01148 2.58478C7.70597 1.66353 9.59866 1.20008 11.6896 1.19442C13.1593 1.19045 14.5121 1.38755 15.748 1.78572C16.9839 2.1839 18.0688 2.76809 19.0027 3.53829C19.9366 4.30092 20.6892 5.24207 21.2604 6.36174C21.8316 7.48141 22.1798 8.76457 22.3049 10.2112ZM25.2107 24.7489L25.1478 1.47621L35.1932 1.44905C36.9204 1.44438 38.4327 1.75468 39.7298 2.37996C41.027 3.00525 42.037 3.90782 42.7599 5.08769C43.4828 6.26756 43.8464 7.68324 43.8509 9.33475C43.8554 11.0014 43.488 12.4077 42.7487 13.5537C42.0169 14.6996 40.9852 15.566 39.6534 16.1529C38.3292 16.7399 36.7808 17.0357 35.0081 17.0405L29.0081 17.0567L28.9948 12.1477L33.7221 12.1349C34.4645 12.1329 35.0968 12.0403 35.619 11.857C36.1488 11.6662 36.5533 11.3659 36.8325 10.956C37.1193 10.5461 37.2618 10.0117 37.26 9.35258C37.2582 8.68591 37.1128 8.14464 36.8238 7.72875C36.5424 7.30527 36.1362 6.99576 35.6054 6.80022C35.0821 6.59709 34.4492 6.49653 33.7068 6.49854L31.4796 6.50456L31.5289 24.7318L25.2107 24.7489ZM38.8181 14.0302L44.6652 24.6962L37.8016 24.7148L32.0909 14.0484L38.8181 14.0302ZM44.4744 1.42395L51.5198 1.4049L56.0908 10.8471L56.2726 10.8466L60.7925 1.37982L67.8379 1.36077L59.3357 17.3384L59.3555 24.6565L53.0827 24.6735L53.063 17.3553L44.4744 1.42395ZM69.9605 24.6278L69.8976 1.3552L79.943 1.32803C81.6703 1.32336 83.1826 1.66018 84.4799 2.3385C85.7771 3.01681 86.7873 3.97241 87.5103 5.20531C88.2334 6.43821 88.5971 7.88041 88.6016 9.53192C88.6061 11.1986 88.2388 12.6428 87.4997 13.8645C86.7681 15.0861 85.7366 16.0283 84.405 16.691C83.0811 17.3537 81.5327 17.6874 79.76 17.6922L73.76 17.7084L73.7467 12.7994L78.474 12.7866C79.2164 12.7846 79.8486 12.6541 80.3707 12.3951C80.9003 12.1285 81.3045 11.7524 81.5835 11.2668C81.8701 10.7812 82.0125 10.2088 82.0107 9.54974C82.0089 8.88308 81.8634 8.31529 81.5743 7.84637C81.2927 7.36986 80.8864 7.00732 80.3554 6.75876C79.832 6.50259 79.1991 6.37552 78.4567 6.37753L76.2294 6.38355L76.2787 24.6108L69.9605 24.6278ZM90.2749 6.39102L90.2612 1.30013L110.488 1.24543L110.502 6.33632L103.502 6.35525L103.551 24.537L97.3241 24.5538L97.2749 6.37209L90.2749 6.39102ZM134.349 12.8173C134.356 15.4082 133.858 17.5952 132.856 19.3782C131.853 21.1536 130.497 22.502 128.787 23.4233C127.077 24.337 125.17 24.7967 123.063 24.8024C120.942 24.8082 119.024 24.355 117.31 23.443C115.603 22.5233 114.243 21.1785 113.231 19.4085C112.226 17.6309 111.72 15.4543 111.713 12.8785C111.706 10.2876 112.2 8.10447 113.195 6.32904C114.198 4.54602 115.55 3.19766 117.253 2.28396C118.962 1.36267 120.878 0.899155 122.999 0.893419C125.105 0.887723 127.015 1.34089 128.73 2.25293C130.444 3.15738 131.808 4.4984 132.82 6.27597C133.833 8.04597 134.342 10.2264 134.349 12.8173ZM127.849 12.8349C127.846 11.441 127.657 10.2672 127.283 9.31368C126.917 8.35255 126.373 7.62674 125.652 7.13627C124.939 6.63819 124.059 6.39057 123.014 6.3934C121.968 6.39623 121.086 6.64861 120.368 7.15056C119.657 7.6449 119.118 8.37364 118.749 9.33676C118.388 10.2923 118.209 11.467 118.213 12.8609C118.217 14.2549 118.402 15.4324 118.768 16.3936C119.142 17.3471 119.685 18.0729 120.399 18.571C121.12 19.0614 122.003 19.3053 123.049 19.3024C124.094 19.2996 124.972 19.051 125.683 18.5567C126.401 18.0547 126.941 17.326 127.302 16.3705C127.671 15.4074 127.853 14.2288 127.849 12.8349ZM142.77 14.0218L142.747 5.63549L146.747 5.62467C147.407 5.62289 147.971 5.73878 148.442 5.97236C148.912 6.20594 149.269 6.53452 149.512 6.95811C149.764 7.38167 149.89 7.88133 149.892 8.45709C149.893 9.04042 149.766 9.53698 149.509 9.94676C149.253 10.3565 148.886 10.6719 148.409 10.8929C147.933 11.1063 147.361 11.2139 146.694 11.2157L144.058 11.2229L144.053 9.49561L146.303 9.48952C146.667 9.48854 146.943 9.40067 147.132 9.22592C147.321 9.05116 147.415 8.79712 147.414 8.46379C147.413 8.10773 147.318 7.84283 147.128 7.6691C146.938 7.4878 146.661 7.39764 146.298 7.39862L145.161 7.40169L145.179 14.0153L142.77 14.0218ZM148.305 10.1887L150.111 14.002L147.475 14.0091L145.851 10.1953L148.305 10.1887ZM146.147 19.0127C144.89 19.0161 143.711 18.7844 142.611 18.3177C141.512 17.851 140.544 17.2021 139.708 16.371C138.873 15.5399 138.219 14.5758 137.746 13.4786C137.273 12.3814 137.035 11.204 137.032 9.94641C137.028 8.68884 137.26 7.51018 137.727 6.41043C138.194 5.31068 138.842 4.34301 139.674 3.50743C140.505 2.67184 141.469 2.01772 142.566 1.54505C143.663 1.07239 144.841 0.834354 146.098 0.830953C147.356 0.827553 148.534 1.05921 149.634 1.52594C150.734 1.99266 151.702 2.64157 152.537 3.47264C153.373 4.30372 154.027 5.26786 154.5 6.36507C154.972 7.46228 155.21 8.63967 155.214 9.89725C155.217 11.1548 154.985 12.3335 154.519 13.4332C154.052 14.533 153.403 15.5006 152.572 16.3362C151.741 17.1718 150.777 17.8259 149.679 18.2986C148.582 18.7713 147.405 19.0093 146.147 19.0127ZM146.14 16.4673C147.353 16.464 148.45 16.1693 149.434 15.5834C150.424 14.9898 151.21 14.196 151.791 13.202C152.379 12.2079 152.671 11.1087 152.668 9.90413C152.665 8.69959 152.366 7.60191 151.773 6.61108C151.187 5.62024 150.397 4.83449 149.403 4.25385C148.409 3.66562 147.31 3.37314 146.105 3.3764C144.9 3.37966 143.803 3.67808 142.812 4.27167C141.821 4.85769 141.032 5.6477 140.443 6.64172C139.863 7.63572 139.574 8.73499 139.577 9.93953C139.581 11.1441 139.875 12.2418 140.461 13.2326C141.055 14.2159 141.849 15.0016 142.843 15.5898C143.837 16.178 144.936 16.4705 146.14 16.4673Z"/>
</mask>
<path d="M22.3049 10.2112L22.3103 12.2112L24.4848 12.2053L24.2975 10.0389L22.3049 10.2112ZM15.8958 10.2285L13.9036 10.4047L14.0653 12.2335L15.9012 12.2285L15.8958 10.2285ZM15.5283 8.78634L13.6989 9.59461L13.7048 9.60798L13.7109 9.62127L15.5283 8.78634ZM14.7298 7.67486L13.3528 9.1253L13.3696 9.14129L13.3868 9.15689L14.7298 7.67486ZM13.512 6.95088L12.8312 8.83144L12.8444 8.83623L12.8577 8.84084L13.512 6.95088ZM9.19517 7.47392L8.04267 5.83934L8.03473 5.845L9.19517 7.47392ZM7.54208 9.6943L5.67909 8.96666L5.6742 8.97943L7.54208 9.6943ZM7.57249 16.7397L5.71351 17.4774L5.71703 17.4863L5.72063 17.4951L7.57249 16.7397ZM9.24878 18.8943L8.14388 20.5614L8.14992 20.5654L8.15599 20.5693L9.24878 18.8943ZM13.4433 19.3829L14.0432 21.2908L14.0574 21.2864L14.0715 21.2817L13.4433 19.3829ZM14.6461 18.7319L15.9205 20.2734L15.9205 20.2734L14.6461 18.7319ZM15.4729 17.7183L13.7157 16.763L13.7094 16.7749L15.4729 17.7183ZM15.9124 16.3649L15.9212 14.3649L14.189 14.3573L13.9342 16.0706L15.9124 16.3649ZM22.3216 16.393L24.3161 16.541L24.4748 14.4024L22.3304 14.393L22.3216 16.393ZM21.5002 19.4066L23.3125 20.2526L23.3149 20.2475L21.5002 19.4066ZM19.4737 22.2303L20.8794 23.653L20.8795 23.6529L19.4737 22.2303ZM16.2407 24.3072L15.4835 22.4561L16.2407 24.3072ZM6.00052 23.744L5.05144 25.5045L5.05474 25.5062L6.00052 23.744ZM1.97823 19.7094L0.227611 20.6765L0.230787 20.6822L1.97823 19.7094ZM1.97695 6.6298L3.72156 7.60773L3.72334 7.60454L1.97695 6.6298ZM6.01148 2.58478L6.96069 4.34519L6.96678 4.34188L6.01148 2.58478ZM15.748 1.78572L16.3613 -0.117926L16.3613 -0.117927L15.748 1.78572ZM19.0027 3.53829L17.7302 5.08127L17.7377 5.08739L19.0027 3.53829ZM21.2604 6.36174L19.4788 7.27062L19.4788 7.27062L21.2604 6.36174ZM22.2995 8.21121L15.8904 8.22854L15.9012 12.2285L22.3103 12.2112L22.2995 8.21121ZM17.888 10.0523C17.8234 9.32164 17.6502 8.6143 17.3457 7.95141L13.7109 9.62127C13.8026 9.82095 13.8744 10.0751 13.9036 10.4047L17.888 10.0523ZM17.3577 7.97807C17.0566 7.2965 16.6268 6.69485 16.0728 6.19283L13.3868 9.15689C13.5163 9.27424 13.6189 9.41357 13.6989 9.59461L17.3577 7.97807ZM16.1069 6.22442C15.5465 5.6924 14.887 5.31045 14.1662 5.06092L12.8577 8.84084C13.0923 8.92206 13.2448 9.02276 13.3528 9.1253L16.1069 6.22442ZM14.1928 5.07032C13.4572 4.80402 12.6769 4.69176 11.8808 4.69392L11.8917 8.6939C12.3077 8.69278 12.6113 8.75183 12.8312 8.83144L14.1928 5.07032ZM11.8808 4.69392C10.486 4.69769 9.16947 5.04489 8.04269 5.83936L10.3477 9.10848C10.6878 8.86867 11.1653 8.69587 11.8917 8.6939L11.8808 4.69392ZM8.03473 5.845C6.94378 6.62219 6.17365 7.70058 5.67913 8.96668L9.40502 10.4219C9.66288 9.76174 9.9948 9.35988 10.3556 9.10284L8.03473 5.845ZM5.6742 8.97943C5.19514 10.2311 4.99052 11.6443 4.99464 13.1671L8.99463 13.1563C8.99145 11.9822 9.15179 11.0837 9.40995 10.4092L5.6742 8.97943ZM4.99464 13.1671C4.99893 14.7539 5.21187 16.2133 5.71351 17.4774L9.43147 16.002C9.17034 15.3439 8.99804 14.418 8.99463 13.1563L4.99464 13.1671ZM5.72063 17.4951C6.23368 18.7528 7.02415 19.8192 8.14388 20.5614L10.3537 17.2272C10.0162 17.0035 9.68919 16.6336 9.42435 15.9843L5.72063 17.4951ZM8.15599 20.5693C9.26508 21.2929 10.5383 21.6067 11.8811 21.6031L11.8703 17.6031C11.1676 17.605 10.6896 17.4463 10.3416 17.2192L8.15599 20.5693ZM11.8811 21.6031C12.6262 21.6011 13.3544 21.5074 14.0432 21.2908L12.8434 17.475C12.6088 17.5488 12.2919 17.6019 11.8703 17.6031L11.8811 21.6031ZM14.0715 21.2817C14.7449 21.0589 15.3704 20.7281 15.9205 20.2734L13.3717 17.1905C13.2415 17.2982 13.0651 17.4014 12.8151 17.4842L14.0715 21.2817ZM15.9205 20.2734C16.4638 19.8242 16.9044 19.2823 17.2364 18.6618L13.7094 16.7749C13.6192 16.9434 13.5087 17.0773 13.3717 17.1905L15.9205 20.2734ZM17.23 18.6736C17.5716 18.0454 17.7854 17.3667 17.8907 16.6591L13.9342 16.0706C13.8906 16.3634 13.8114 16.5871 13.7158 16.7631L17.23 18.6736ZM15.9036 18.3649L22.3128 18.393L22.3304 14.393L15.9212 14.3649L15.9036 18.3649ZM20.3271 16.245C20.2741 16.9585 20.0732 17.7292 19.6856 18.5657L23.3149 20.2475C23.8762 19.0359 24.2229 17.7976 24.3161 16.541L20.3271 16.245ZM19.688 18.5605C19.3231 19.3421 18.7924 20.0918 18.068 20.8076L20.8795 23.6529C21.9079 22.6367 22.7282 21.504 23.3124 20.2526L19.688 18.5605ZM18.0681 20.8075C17.4092 21.4585 16.5611 22.0153 15.4835 22.4561L16.9979 26.1583C18.4932 25.5467 19.8005 24.7189 20.8794 23.653L18.0681 20.8075ZM15.4835 22.4561C14.4831 22.8653 13.2522 23.0994 11.7488 23.1034L11.7596 27.1034C13.6654 27.0983 15.4254 26.8015 16.9979 26.1583L15.4835 22.4561ZM11.7488 23.1034C9.9079 23.1084 8.32282 22.7205 6.9463 21.9817L5.05474 25.5062C7.0771 26.5916 9.32782 27.11 11.7596 27.1034L11.7488 23.1034ZM6.9496 21.9835C5.61354 21.2632 4.54115 20.2013 3.72567 18.7365L0.230787 20.6822C1.39463 22.7727 3.00377 24.4005 5.05144 25.5044L6.9496 21.9835ZM3.72884 18.7422C2.94743 17.3278 2.50094 15.5016 2.49465 13.1739L-1.50534 13.1847C-1.4977 16.0085 -0.955132 18.5356 0.22762 20.6765L3.72884 18.7422ZM2.49465 13.1739C2.48833 10.8352 2.93465 9.01156 3.72156 7.60773L0.232344 5.65187C-0.971151 7.79888 -1.51302 10.3416 -1.50534 13.1847L2.49465 13.1739ZM3.72334 7.60454C4.54477 6.13284 5.62194 5.06703 6.96069 4.34518L5.06228 0.824382C3.01202 1.92988 1.3995 3.56075 0.230564 5.65505L3.72334 7.60454ZM6.96678 4.34188C8.34554 3.59228 9.90732 3.19925 11.695 3.19441L11.6842 -0.805571C9.29 -0.799097 7.0664 -0.265226 5.05619 0.827679L6.96678 4.34188ZM11.695 3.19441C12.9819 3.19093 14.1231 3.36346 15.1347 3.68937L16.3613 -0.117927C14.901 -0.588365 13.3366 -0.810039 11.6842 -0.805571L11.695 3.19441ZM15.1347 3.68937C16.1477 4.01573 17.0051 4.48323 17.7302 5.08125L20.2752 1.99533C19.1326 1.05295 17.8201 0.352067 16.3613 -0.117926L15.1347 3.68937ZM17.7377 5.08739C18.4478 5.66725 19.0281 6.38712 19.4788 7.27062L23.0419 5.45286C22.3502 4.09702 21.4255 2.93459 20.2678 1.98919L17.7377 5.08739ZM19.4788 7.27062C19.9162 8.12789 20.206 9.15432 20.3123 10.3835L24.2975 10.0389C24.1535 8.37481 23.747 6.83494 23.0419 5.45286L19.4788 7.27062ZM25.2107 24.7489L23.2107 24.7543L23.2161 26.7543L25.2161 26.7488L25.2107 24.7489ZM25.1478 1.47621L25.1423 -0.523782L23.1424 -0.518373L23.1478 1.48162L25.1478 1.47621ZM39.7298 2.37996L38.8613 4.18157L39.7298 2.37996ZM42.7599 5.08769L44.4652 4.04283L44.4652 4.04283L42.7599 5.08769ZM42.7487 13.5537L41.0681 12.4694L41.063 12.4773L42.7487 13.5537ZM39.6534 16.1529L38.8468 14.3228L38.843 14.3245L39.6534 16.1529ZM29.0081 17.0567L27.0081 17.0621L27.0135 19.0621L29.0135 19.0567L29.0081 17.0567ZM28.9948 12.1477L28.9894 10.1477L26.9894 10.1531L26.9948 12.1531L28.9948 12.1477ZM35.619 11.857L36.2812 13.7442L36.289 13.7415L36.2968 13.7387L35.619 11.857ZM36.8325 10.956L35.1938 9.80945L35.1866 9.81969L35.1796 9.83001L36.8325 10.956ZM36.8238 7.72875L35.1581 8.83577L35.1696 8.85304L35.1814 8.87006L36.8238 7.72875ZM35.6054 6.80022L34.8816 8.66467L34.8978 8.67095L34.9141 8.67695L35.6054 6.80022ZM31.4796 6.50456L31.4742 4.50457L29.4742 4.50998L29.4796 6.50997L31.4796 6.50456ZM31.5289 24.7318L31.5343 26.7318L33.5343 26.7264L33.5288 24.7264L31.5289 24.7318ZM38.8181 14.0302L40.5719 13.0688L40.0008 12.027L38.8127 12.0302L38.8181 14.0302ZM44.6652 24.6962L44.6706 26.6962L48.0374 26.6871L46.4189 23.7348L44.6652 24.6962ZM37.8016 24.7148L36.0384 25.6588L36.6055 26.718L37.807 26.7148L37.8016 24.7148ZM32.0909 14.0484L32.0855 12.0484L28.7563 12.0574L30.3277 14.9924L32.0909 14.0484ZM27.2107 24.7434L27.1478 1.4708L23.1478 1.48162L23.2107 24.7543L27.2107 24.7434ZM25.1532 3.4762L35.1986 3.44904L35.1878 -0.550946L25.1423 -0.523782L25.1532 3.4762ZM35.1986 3.44904C36.6829 3.44502 37.8858 3.7113 38.8613 4.18157L40.5983 0.578356C38.9795 -0.201943 37.158 -0.556274 35.1878 -0.550946L35.1986 3.44904ZM38.8613 4.18157C39.8275 4.6473 40.5406 5.29377 41.0545 6.13255L44.4652 4.04283C43.5334 2.52187 42.2264 1.36319 40.5983 0.578356L38.8613 4.18157ZM41.0545 6.13255C41.5515 6.94366 41.8472 7.98405 41.8509 9.34016L45.8509 9.32935C45.8456 7.38244 45.414 5.59145 44.4652 4.04283L41.0545 6.13255ZM41.8509 9.34016C41.8546 10.7067 41.5555 11.7139 41.0681 12.4694L44.4292 14.6379C45.4205 13.1016 45.8562 11.2961 45.8509 9.32935L41.8509 9.34016ZM41.063 12.4773C40.5587 13.267 39.8443 13.8832 38.8468 14.3228L40.46 17.9831C42.126 17.2488 43.4751 16.1321 44.4343 14.6301L41.063 12.4773ZM38.843 14.3245C37.8224 14.7768 36.5586 15.0363 35.0027 15.0405L35.0135 19.0405C37.0029 19.0351 38.836 18.7029 40.4638 17.9814L38.843 14.3245ZM35.0027 15.0405L29.0027 15.0567L29.0135 19.0567L35.0135 19.0405L35.0027 15.0405ZM31.0081 17.0513L30.9948 12.1423L26.9948 12.1531L27.0081 17.0621L31.0081 17.0513ZM29.0002 14.1477L33.7275 14.1349L33.7167 10.1349L28.9894 10.1477L29.0002 14.1477ZM33.7275 14.1349C34.6221 14.1325 35.4896 14.022 36.2812 13.7442L34.9569 9.96981C34.704 10.0585 34.3069 10.1333 33.7167 10.1349L33.7275 14.1349ZM36.2968 13.7387C37.1672 13.4252 37.9375 12.8863 38.4854 12.082L35.1796 9.83001C35.1692 9.84537 35.1305 9.90721 34.9413 9.97537L36.2968 13.7387ZM38.4712 12.1026C39.059 11.2626 39.2625 10.2888 39.26 9.34717L35.26 9.35799C35.261 9.73457 35.1796 9.82972 35.1938 9.80945L38.4712 12.1026ZM39.26 9.34717C39.2574 8.40132 39.0502 7.42782 38.4662 6.58744L35.1814 8.87006C35.1821 8.87107 35.1862 8.87705 35.1924 8.89073C35.1987 8.90468 35.2082 8.92866 35.2181 8.96549C35.2383 9.04058 35.2595 9.16634 35.26 9.35799L39.26 9.34717ZM38.4895 6.62173C37.9468 5.80524 37.1787 5.24841 36.2967 4.9235L34.9141 8.67695C35.0937 8.74311 35.1379 8.80529 35.1581 8.83577L38.4895 6.62173ZM36.3291 4.93577C35.5117 4.61845 34.6172 4.49607 33.7014 4.49855L33.7122 8.49853C34.2813 8.49699 34.6525 8.57573 34.8816 8.66467L36.3291 4.93577ZM33.7014 4.49855L31.4742 4.50457L31.485 8.50455L33.7122 8.49853L33.7014 4.49855ZM29.4796 6.50997L29.5289 24.7372L33.5288 24.7264L33.4796 6.49915L29.4796 6.50997ZM31.5234 22.7318L25.2053 22.7489L25.2161 26.7488L31.5343 26.7318L31.5234 22.7318ZM37.0644 14.9916L42.9114 25.6576L46.4189 23.7348L40.5719 13.0688L37.0644 14.9916ZM44.6598 22.6963L37.7961 22.7148L37.807 26.7148L44.6706 26.6962L44.6598 22.6963ZM39.5648 23.7708L33.8541 13.1044L30.3277 14.9924L36.0384 25.6588L39.5648 23.7708ZM32.0963 16.0484L38.8235 16.0302L38.8127 12.0302L32.0855 12.0484L32.0963 16.0484ZM44.4744 1.42395L44.469 -0.576045L41.129 -0.567013L42.7139 2.37302L44.4744 1.42395ZM51.5198 1.4049L53.32 0.533436L52.772 -0.598498L51.5144 -0.595097L51.5198 1.4049ZM56.0908 10.8471L54.2907 11.7186L54.8386 12.8505L56.0962 12.8471L56.0908 10.8471ZM56.2726 10.8466L56.2781 12.8466L57.5356 12.8432L58.0775 11.7083L56.2726 10.8466ZM60.7925 1.37982L60.7871 -0.620172L59.5295 -0.616772L58.9877 0.518109L60.7925 1.37982ZM67.8379 1.36077L69.6035 2.3003L71.1726 -0.648257L67.8325 -0.639225L67.8379 1.36077ZM59.3357 17.3384L57.5701 16.3988L57.3343 16.8419L57.3357 17.3438L59.3357 17.3384ZM59.3555 24.6565L59.3609 26.6565L61.3609 26.6511L61.3554 24.6511L59.3555 24.6565ZM53.0827 24.6735L51.0828 24.6789L51.0882 26.6789L53.0882 26.6735L53.0827 24.6735ZM53.063 17.3553L55.063 17.3499L55.0616 16.848L54.8234 16.4063L53.063 17.3553ZM44.4798 3.42394L51.5252 3.40489L51.5144 -0.595097L44.469 -0.576045L44.4798 3.42394ZM49.7197 2.27636L54.2907 11.7186L57.891 9.97565L53.32 0.533436L49.7197 2.27636ZM56.0962 12.8471L56.2781 12.8466L56.2672 8.84663L56.0854 8.84712L56.0962 12.8471ZM58.0775 11.7083L62.5974 2.24153L58.9877 0.518109L54.4678 9.98491L58.0775 11.7083ZM60.7979 3.37981L67.8434 3.36076L67.8325 -0.639225L60.7871 -0.620172L60.7979 3.37981ZM66.0724 0.421236L57.5701 16.3988L61.1012 18.2779L69.6035 2.3003L66.0724 0.421236ZM57.3357 17.3438L57.3555 24.6619L61.3554 24.6511L61.3357 17.333L57.3357 17.3438ZM59.35 22.6565L53.0773 22.6735L53.0882 26.6735L59.3609 26.6565L59.35 22.6565ZM55.0827 24.6681L55.063 17.3499L51.063 17.3607L51.0828 24.6789L55.0827 24.6681ZM54.8234 16.4063L46.2349 0.47488L42.7139 2.37302L51.3025 18.3044L54.8234 16.4063ZM69.9605 24.6278L67.9605 24.6332L67.9659 26.6332L69.9659 26.6278L69.9605 24.6278ZM69.8976 1.3552L69.8922 -0.644794L67.8922 -0.639386L67.8976 1.36061L69.8976 1.3552ZM84.4799 2.3385L83.5531 4.11085L83.5531 4.11085L84.4799 2.3385ZM87.5103 5.20531L89.2356 4.19356L89.2356 4.19356L87.5103 5.20531ZM87.4997 13.8645L85.7884 12.8292L85.7838 12.837L87.4997 13.8645ZM84.405 16.691L83.5139 14.9005L83.5099 14.9025L84.405 16.691ZM73.76 17.7084L71.76 17.7139L71.7654 19.7139L73.7654 19.7084L73.76 17.7084ZM73.7467 12.7994L73.7413 10.7994L71.7413 10.8048L71.7467 12.8048L73.7467 12.7994ZM80.3707 12.3951L81.2595 14.1868L81.2699 14.1815L80.3707 12.3951ZM81.5835 11.2668L79.8611 10.2504L79.8552 10.2604L79.8494 10.2705L81.5835 11.2668ZM81.5743 7.84637L79.8525 8.86388L79.862 8.88008L79.8719 8.89611L81.5743 7.84637ZM80.3554 6.75876L79.4763 8.55516L79.4918 8.56277L79.5075 8.57011L80.3554 6.75876ZM76.2294 6.38355L76.224 4.38356L74.224 4.38896L74.2294 6.38896L76.2294 6.38355ZM76.2787 24.6108L76.2841 26.6107L78.2841 26.6053L78.2787 24.6053L76.2787 24.6108ZM71.9605 24.6224L71.8976 1.34979L67.8976 1.36061L67.9605 24.6332L71.9605 24.6224ZM69.903 3.35519L79.9484 3.32803L79.9376 -0.671959L69.8922 -0.644794L69.903 3.35519ZM79.9484 3.32803C81.4094 3.32408 82.5911 3.6078 83.5531 4.11085L85.4066 0.566148C83.7741 -0.287434 81.9311 -0.67735 79.9376 -0.671959L79.9484 3.32803ZM83.5531 4.11085C84.5267 4.61991 85.2565 5.31569 85.7851 6.21706L89.2356 4.19356C88.3181 2.62914 87.0275 1.41371 85.4066 0.566147L83.5531 4.11085ZM85.7851 6.21706C86.3029 7.09998 86.5979 8.18391 86.6016 9.53733L90.6016 9.52651C90.5963 7.57692 90.1638 5.77644 89.2356 4.19356L85.7851 6.21706ZM86.6016 9.53733C86.6053 10.8994 86.3079 11.9706 85.7885 12.8292L89.2109 14.8997C90.1697 13.3149 90.6069 11.4978 90.6016 9.52651L86.6016 9.53733ZM85.7838 12.837C85.2576 13.7157 84.5193 14.4002 83.5139 14.9005L85.2961 18.4815C86.9539 17.6565 88.2786 16.4566 89.2156 14.8919L85.7838 12.837ZM83.5099 14.9025C82.5115 15.4022 81.2787 15.6881 79.7546 15.6922L79.7654 19.6922C81.7867 19.6868 83.6506 19.3052 85.3002 18.4795L83.5099 14.9025ZM79.7546 15.6922L73.7546 15.7085L73.7654 19.7084L79.7654 19.6922L79.7546 15.6922ZM75.76 17.703L75.7467 12.794L71.7467 12.8048L71.76 17.7139L75.76 17.703ZM73.7521 14.7994L78.4794 14.7866L78.4686 10.7866L73.7413 10.7994L73.7521 14.7994ZM78.4794 14.7866C79.4469 14.784 80.3982 14.6141 81.2595 14.1867L79.4818 10.6035C79.2991 10.6941 78.9859 10.7852 78.4686 10.7866L78.4794 14.7866ZM81.2699 14.1815C82.1276 13.7498 82.832 13.1085 83.3177 12.2631L79.8494 10.2705C79.777 10.3964 79.6729 10.5072 79.4714 10.6087L81.2699 14.1815ZM83.306 12.2832C83.8041 11.4392 84.0133 10.5014 84.0107 9.54434L80.0107 9.55515C80.0117 9.91627 79.9361 10.1232 79.8611 10.2504L83.306 12.2832ZM84.0107 9.54434C84.0081 8.58659 83.7966 7.63978 83.2766 6.79664L79.8719 8.89611C79.9303 8.9908 80.0097 9.17957 80.0107 9.55515L84.0107 9.54434ZM83.2961 6.82887C82.7973 5.98479 82.0761 5.35596 81.2034 4.9474L79.5075 8.57011C79.6967 8.65868 79.7881 8.75493 79.8525 8.86388L83.2961 6.82887ZM81.2346 4.96235C80.3709 4.53968 79.4188 4.37492 78.4513 4.37753L78.4621 8.37752C78.9794 8.37612 79.2931 8.46551 79.4763 8.55516L81.2346 4.96235ZM78.4513 4.37753L76.224 4.38356L76.2348 8.38354L78.4621 8.37752L78.4513 4.37753ZM74.2294 6.38896L74.2787 24.6162L78.2787 24.6053L78.2294 6.37814L74.2294 6.38896ZM76.2733 22.6108L69.9551 22.6278L69.9659 26.6278L76.2841 26.6107L76.2733 22.6108ZM90.2749 6.39102L88.2749 6.39643L88.2803 8.39642L90.2803 8.39101L90.2749 6.39102ZM90.2612 1.30013L90.2557 -0.699862L88.2558 -0.694453L88.2612 1.30554L90.2612 1.30013ZM110.488 1.24543L112.488 1.24002L112.483 -0.759968L110.483 -0.75456L110.488 1.24543ZM110.502 6.33632L110.508 8.33632L112.508 8.33091L112.502 6.33092L110.502 6.33632ZM103.502 6.35525L103.497 4.35526L101.497 4.36067L101.502 6.36066L103.502 6.35525ZM103.551 24.537L103.557 26.537L105.557 26.5316L105.551 24.5316L103.551 24.537ZM97.3241 24.5538L95.3241 24.5593L95.3295 26.5592L97.3295 26.5538L97.3241 24.5538ZM97.2749 6.37209L99.2749 6.36668L99.2695 4.36669L97.2695 4.3721L97.2749 6.37209ZM92.2749 6.38561L92.2611 1.29472L88.2612 1.30554L88.2749 6.39643L92.2749 6.38561ZM90.2666 3.30012L110.494 3.24543L110.483 -0.75456L90.2557 -0.699862L90.2666 3.30012ZM108.488 1.25084L108.502 6.34173L112.502 6.33092L112.488 1.24002L108.488 1.25084ZM110.497 4.33633L103.497 4.35526L103.508 8.35525L110.508 8.33632L110.497 4.33633ZM101.502 6.36066L101.551 24.5424L105.551 24.5316L105.502 6.34984L101.502 6.36066ZM103.546 22.537L97.3187 22.5539L97.3295 26.5538L103.557 26.537L103.546 22.537ZM99.3241 24.5484L99.2749 6.36668L95.2749 6.3775L95.3241 24.5593L99.3241 24.5484ZM97.2695 4.3721L90.2695 4.39103L90.2803 8.39101L97.2803 8.37209L97.2695 4.3721ZM132.856 19.3782L134.597 20.3618L134.599 20.3586L132.856 19.3782ZM128.787 23.4233L129.73 25.1872L129.736 25.1839L128.787 23.4233ZM117.31 23.443L116.361 25.2037L116.371 25.2087L117.31 23.443ZM113.231 19.4085L111.49 20.3927L111.495 20.4015L113.231 19.4085ZM113.195 6.32904L111.452 5.34866L111.451 5.35111L113.195 6.32904ZM117.253 2.28396L118.198 4.04612L118.201 4.0446L117.253 2.28396ZM128.73 2.25293L127.791 4.01867L127.797 4.02189L128.73 2.25293ZM132.82 6.27597L131.082 7.26577L131.084 7.26894L132.82 6.27597ZM127.283 9.31368L125.414 10.0258L125.417 10.0347L125.421 10.0436L127.283 9.31368ZM125.652 7.13627L124.507 8.77619L124.517 8.78312L124.527 8.78993L125.652 7.13627ZM120.368 7.15056L121.51 8.79249L121.514 8.78998L120.368 7.15056ZM118.749 9.33676L116.881 8.62188L116.878 8.62983L118.749 9.33676ZM118.768 16.3936L116.899 17.1057L116.902 17.1146L116.906 17.1235L118.768 16.3936ZM120.399 18.571L119.254 20.2109L119.264 20.2178L119.274 20.2246L120.399 18.571ZM125.683 18.5567L126.825 20.1986L126.829 20.1961L125.683 18.5567ZM127.302 16.3705L125.434 15.6556L125.431 15.6635L127.302 16.3705ZM132.349 12.8227C132.356 15.1588 131.907 16.9857 131.112 18.3978L134.599 20.3586C135.81 18.2046 136.357 15.6577 136.349 12.8119L132.349 12.8227ZM131.114 18.3946C130.287 19.8587 129.199 20.9296 127.838 21.6627L129.736 25.1839C131.795 24.0744 133.418 22.4486 134.597 20.3618L131.114 18.3946ZM127.844 21.6594C126.448 22.4059 124.866 22.7975 123.058 22.8024L123.069 26.8024C125.473 26.7959 127.707 26.2681 129.73 25.1872L127.844 21.6594ZM123.058 22.8024C121.235 22.8074 119.647 22.4206 118.249 21.6772L116.371 25.2087C118.402 26.2894 120.649 26.809 123.069 26.8024L123.058 22.8024ZM118.258 21.6822C116.898 20.9492 115.804 19.8786 114.967 18.4156L111.495 20.4015C112.683 22.4785 114.308 24.0975 116.361 25.2037L118.258 21.6822ZM114.972 18.4244C114.174 17.0138 113.719 15.194 113.713 12.8731L109.713 12.8839C109.721 15.7146 110.277 18.2481 111.49 20.3927L114.972 18.4244ZM113.713 12.8731C113.707 10.5344 114.153 8.7108 114.94 7.30697L111.451 5.35111C110.247 7.49813 109.705 10.0409 109.713 12.8839L113.713 12.8731ZM114.939 7.30942C115.767 5.83697 116.851 4.76943 118.198 4.04612L116.307 0.521808C114.25 1.62589 112.629 3.25507 111.452 5.34866L114.939 7.30942ZM118.201 4.0446C119.595 3.29366 121.181 2.89834 123.004 2.89341L122.993 -1.10657C120.574 -1.10003 118.33 -0.568317 116.304 0.52333L118.201 4.0446ZM123.004 2.89341C124.809 2.88853 126.391 3.27416 127.791 4.01866L129.669 0.487188C127.639 -0.592378 125.4 -1.11308 122.993 -1.10657L123.004 2.89341ZM127.797 4.02189C129.155 4.73855 130.248 5.80008 131.082 7.26576L134.558 5.28618C133.368 3.19672 131.734 1.57622 129.663 0.483962L127.797 4.02189ZM131.084 7.26894C131.884 8.66726 132.343 10.4863 132.349 12.8227L136.349 12.8119C136.342 9.96655 135.781 7.42467 134.556 5.283L131.084 7.26894ZM129.849 12.8295C129.845 11.2713 129.636 9.83505 129.145 8.58375L125.421 10.0436C125.678 10.6994 125.846 11.6106 125.849 12.8403L129.849 12.8295ZM129.152 8.60154C128.667 7.32822 127.894 6.24239 126.777 5.4826L124.527 8.78993C124.852 9.01109 125.167 9.37688 125.414 10.0258L129.152 8.60154ZM126.797 5.49634C125.683 4.71866 124.38 4.38969 123.008 4.39341L123.019 8.39339C123.738 8.39145 124.194 8.55773 124.507 8.77619L126.797 5.49634ZM123.008 4.39341C121.635 4.39712 120.336 4.73337 119.222 5.51113L121.514 8.78998C121.837 8.56385 122.301 8.39533 123.019 8.39339L123.008 4.39341ZM119.226 5.50862C118.127 6.27307 117.365 7.35693 116.881 8.62188L120.617 10.0516C120.87 9.39034 121.188 9.01674 121.51 8.79249L119.226 5.50862ZM116.878 8.62983C116.406 9.87937 116.209 11.3119 116.213 12.8664L120.213 12.8555C120.21 11.6221 120.37 10.7052 120.62 10.0437L116.878 8.62983ZM116.213 12.8664C116.217 14.4216 116.422 15.8543 116.899 17.1057L120.637 15.6814C120.381 15.0105 120.216 14.0882 120.213 12.8555L116.213 12.8664ZM116.906 17.1235C117.398 18.3781 118.163 19.4493 119.254 20.2109L121.544 16.931C121.208 16.6965 120.886 16.3161 120.63 15.6636L116.906 17.1235ZM119.274 20.2246C120.39 20.9837 121.687 21.3061 123.054 21.3024L123.043 17.3024C122.319 17.3044 121.85 17.1392 121.524 16.9173L119.274 20.2246ZM123.054 21.3024C124.42 21.2987 125.716 20.9696 126.825 20.1986L124.541 16.9147C124.228 17.1325 123.768 17.3005 123.043 17.3024L123.054 21.3024ZM126.829 20.1961C127.929 19.4271 128.694 18.3456 129.173 17.0774L125.431 15.6635C125.188 16.3064 124.874 16.6824 124.537 16.9173L126.829 20.1961ZM129.17 17.0854C129.651 15.8271 129.854 14.3884 129.849 12.8295L125.849 12.8403C125.853 14.0692 125.69 14.9876 125.434 15.6556L129.17 17.0854ZM142.77 14.0218L140.77 14.0272L140.776 16.0272L142.776 16.0218L142.77 14.0218ZM142.747 5.63549L142.742 3.63549L140.742 3.6409L140.748 5.64089L142.747 5.63549ZM148.442 5.97236L147.552 7.76363L147.552 7.76363L148.442 5.97236ZM149.512 6.95811L147.779 7.95508L147.785 7.96666L147.792 7.97815L149.512 6.95811ZM149.509 9.94676L151.205 11.0078L151.205 11.0078L149.509 9.94676ZM148.409 10.8929L149.227 12.7183L149.239 12.713L149.251 12.7074L148.409 10.8929ZM144.058 11.2229L142.058 11.2283L142.063 13.2283L144.063 13.2229L144.058 11.2229ZM144.053 9.49561L144.048 7.49561L142.048 7.50102L142.053 9.50101L144.053 9.49561ZM147.132 9.22592L148.49 10.6941L148.49 10.6941L147.132 9.22592ZM147.128 7.6691L145.747 9.11562L145.762 9.13028L145.778 9.14462L147.128 7.6691ZM145.161 7.40169L145.156 5.4017L143.156 5.40711L143.161 7.4071L145.161 7.40169ZM145.179 14.0153L145.185 16.0153L147.185 16.0099L147.179 14.0099L145.179 14.0153ZM148.305 10.1887L150.113 9.33269L149.569 8.18523L148.3 8.18866L148.305 10.1887ZM150.111 14.002L150.116 16.002L153.267 15.9934L151.919 13.146L150.111 14.002ZM147.475 14.0091L145.635 14.7926L146.154 16.0127L147.48 16.0091L147.475 14.0091ZM145.851 10.1953L145.845 8.1953L142.829 8.20346L144.011 10.9788L145.851 10.1953ZM142.611 18.3177L143.393 16.4767L143.393 16.4767L142.611 18.3177ZM137.746 13.4786L135.909 14.2699L135.909 14.2699L137.746 13.4786ZM137.727 6.41043L135.886 5.6291L135.886 5.6291L137.727 6.41043ZM142.566 1.54505L143.357 3.38187L143.357 3.38187L142.566 1.54505ZM152.537 3.47264L153.948 2.05461L153.948 2.05461L152.537 3.47264ZM154.5 6.36507L152.663 7.15635L152.663 7.15635L154.5 6.36507ZM154.519 13.4332L152.678 12.6519L152.678 12.6519L154.519 13.4332ZM152.572 16.3362L153.99 17.7466L153.99 17.7466L152.572 16.3362ZM149.434 15.5834L150.457 17.3014L150.461 17.299L149.434 15.5834ZM151.791 13.202L150.069 12.1834L150.064 12.1932L151.791 13.202ZM151.773 6.61108L150.051 7.62922L150.057 7.63892L151.773 6.61108ZM149.403 4.25385L148.384 5.97508L148.394 5.98079L149.403 4.25385ZM142.812 4.27167L143.83 5.99316L143.84 5.98735L142.812 4.27167ZM140.443 6.64172L138.722 5.62316L138.716 5.63292L140.443 6.64172ZM140.461 13.2326L138.74 14.2507L138.744 14.2585L138.749 14.2662L140.461 13.2326ZM142.843 15.5898L141.824 17.311L141.824 17.311L142.843 15.5898ZM144.77 14.0164L144.747 5.63008L140.748 5.64089L140.77 14.0272L144.77 14.0164ZM142.753 7.63548L146.753 7.62466L146.742 3.62468L142.742 3.63549L142.753 7.63548ZM146.753 7.62466C147.179 7.62351 147.422 7.69885 147.552 7.76363L149.331 4.1811C148.521 3.77872 147.634 3.62226 146.742 3.62468L146.753 7.62466ZM147.552 7.76363C147.696 7.83534 147.747 7.89965 147.779 7.95508L151.246 5.96114C150.791 5.16939 150.127 4.57654 149.331 4.1811L147.552 7.76363ZM147.792 7.97815C147.832 8.04593 147.891 8.18276 147.892 8.4625L151.892 8.45168C151.889 7.5799 151.695 6.71741 151.233 5.93807L147.792 7.97815ZM147.892 8.4625C147.892 8.74723 147.832 8.85618 147.814 8.88572L151.205 11.0078C151.699 10.2178 151.894 9.33361 151.892 8.45168L147.892 8.4625ZM147.814 8.88572C147.781 8.93834 147.725 9.00574 147.568 9.07843L149.251 12.7074C150.047 12.3381 150.725 11.7748 151.205 11.0078L147.814 8.88572ZM147.592 9.0675C147.431 9.13962 147.15 9.2145 146.689 9.21575L146.7 13.2157C147.572 13.2134 148.434 13.073 149.227 12.7183L147.592 9.0675ZM146.689 9.21575L144.053 9.22288L144.063 13.2229L146.7 13.2157L146.689 9.21575ZM146.058 11.2175L146.053 9.4902L142.053 9.50101L142.058 11.2283L146.058 11.2175ZM144.059 11.4956L146.309 11.4895L146.298 7.48953L144.048 7.49561L144.059 11.4956ZM146.309 11.4895C146.967 11.4877 147.805 11.3279 148.49 10.6941L145.774 7.75772C146.081 7.47345 146.367 7.48934 146.298 7.48953L146.309 11.4895ZM148.49 10.6941C149.203 10.0352 149.416 9.1764 149.414 8.45838L145.414 8.46919C145.414 8.45029 145.416 8.35202 145.469 8.21021C145.525 8.05804 145.625 7.89532 145.774 7.75772L148.49 10.6941ZM149.414 8.45838C149.412 7.76457 149.22 6.87226 148.478 6.19359L145.778 9.14462C145.612 8.99249 145.512 8.81917 145.46 8.67583C145.413 8.54409 145.414 8.46244 145.414 8.46919L149.414 8.45838ZM148.509 6.22259C147.822 5.56645 146.971 5.39679 146.292 5.39863L146.303 9.39861C146.352 9.39848 146.054 9.40914 145.747 9.11562L148.509 6.22259ZM146.292 5.39863L145.156 5.4017L145.167 9.40168L146.303 9.39861L146.292 5.39863ZM143.161 7.4071L143.179 14.0207L147.179 14.0099L147.161 7.39628L143.161 7.4071ZM145.174 12.0153L142.765 12.0218L142.776 16.0218L145.185 16.0153L145.174 12.0153ZM146.498 11.0446L148.303 14.8579L151.919 13.146L150.113 9.33269L146.498 11.0446ZM150.106 12.002L147.469 12.0091L147.48 16.0091L150.116 16.002L150.106 12.002ZM149.315 13.2256L147.691 9.41175L144.011 10.9788L145.635 14.7926L149.315 13.2256ZM145.856 12.1953L148.311 12.1886L148.3 8.18866L145.845 8.1953L145.856 12.1953ZM146.142 17.0127C145.14 17.0154 144.231 16.8323 143.393 16.4767L141.83 20.1588C143.192 20.7366 144.639 21.0168 146.153 21.0127L146.142 17.0127ZM143.393 16.4767C142.524 16.1081 141.771 15.6017 141.119 14.953L138.298 17.789C139.317 18.8025 140.499 19.5938 141.83 20.1588L143.393 16.4767ZM141.119 14.953C140.466 14.3042 139.956 13.5536 139.583 12.6873L135.909 14.2699C136.481 15.598 137.279 16.7756 138.298 17.789L141.119 14.953ZM139.583 12.6873C139.223 11.8513 139.035 10.9428 139.032 9.941L135.032 9.95182C135.036 11.4652 135.324 12.9115 135.909 14.2699L139.583 12.6873ZM139.032 9.941C139.029 8.93924 139.212 8.02971 139.568 7.19176L135.886 5.6291C135.308 6.99065 135.028 8.43844 135.032 9.95182L139.032 9.941ZM139.568 7.19176C139.936 6.32345 140.443 5.57007 141.092 4.91781L138.256 2.09704C137.242 3.11595 136.451 4.29791 135.886 5.6291L139.568 7.19176ZM141.092 4.91781C141.74 4.26555 142.491 3.75506 143.357 3.38187L141.775 -0.291759C140.447 0.280376 139.269 1.07814 138.256 2.09704L141.092 4.91781ZM143.357 3.38187C144.193 3.02172 145.102 2.83365 146.104 2.83095L146.093 -1.16904C144.579 -1.16495 143.133 -0.876947 141.775 -0.291759L143.357 3.38187ZM146.104 2.83095C147.105 2.82824 148.015 3.01139 148.853 3.367L150.415 -0.315125C149.054 -0.892958 147.606 -1.17313 146.093 -1.16904L146.104 2.83095ZM148.853 3.367C149.721 3.73551 150.474 4.24193 151.127 4.89068L153.948 2.05461C152.929 1.0412 151.747 0.249819 150.415 -0.315125L148.853 3.367ZM151.127 4.89068C151.779 5.53942 152.29 6.29004 152.663 7.15635L156.336 5.5738C155.764 4.24569 154.966 3.06802 153.948 2.05461L151.127 4.89068ZM152.663 7.15635C153.023 7.99236 153.211 8.90089 153.214 9.90265L157.214 9.89184C157.21 8.37845 156.922 6.93221 156.336 5.57379L152.663 7.15635ZM153.214 9.90265C153.216 10.9044 153.033 11.814 152.678 12.6519L156.36 14.2146C156.938 12.853 157.218 11.4052 157.214 9.89184L153.214 9.90265ZM152.678 12.6519C152.309 13.5202 151.803 14.2736 151.154 14.9258L153.99 17.7466C155.003 16.7277 155.795 15.5457 156.36 14.2146L152.678 12.6519ZM151.154 14.9258C150.505 15.5781 149.755 16.0886 148.888 16.4618L150.471 20.1354C151.799 19.5633 152.977 18.7655 153.99 17.7466L151.154 14.9258ZM148.888 16.4618C148.052 16.8219 147.144 17.01 146.142 17.0127L146.153 21.0127C147.666 21.0086 149.112 20.7206 150.471 20.1354L148.888 16.4618ZM146.146 18.4673C147.695 18.4631 149.148 18.0819 150.457 17.3014L148.41 13.8653C147.753 14.2568 147.011 14.4649 146.135 14.4673L146.146 18.4673ZM150.461 17.299C151.74 16.533 152.767 15.4965 153.518 14.2108L150.064 12.1932C149.654 12.8954 149.109 13.4465 148.406 13.8677L150.461 17.299ZM153.512 14.2205C154.292 12.9029 154.672 11.4473 154.668 9.89872L150.668 9.90954C150.671 10.77 150.466 11.513 150.07 12.1834L153.512 14.2205ZM154.668 9.89872C154.664 8.35012 154.275 6.89661 153.489 5.58324L150.057 7.63892C150.458 8.3072 150.666 9.04905 150.668 9.90954L154.668 9.89872ZM153.494 5.59296C152.735 4.30903 151.7 3.27931 150.412 2.52691L148.394 5.98079C149.094 6.38968 149.639 6.93145 150.051 7.62921L153.494 5.59296ZM150.421 2.53264C149.104 1.75293 147.648 1.37222 146.1 1.37641L146.11 5.37639C146.971 5.37406 147.714 5.57832 148.384 5.97506L150.421 2.53264ZM146.1 1.37641C144.551 1.38059 143.098 1.76917 141.784 2.55599L143.84 5.98735C144.508 5.58699 145.25 5.37872 146.11 5.37639L146.1 1.37641ZM141.794 2.55021C140.512 3.30822 139.481 4.34042 138.722 5.62317L142.165 7.66027C142.582 6.95498 143.13 6.40715 143.83 5.99313L141.794 2.55021ZM138.716 5.63292C137.948 6.94917 137.573 8.40127 137.577 9.94494L141.577 9.93412C141.575 9.0687 141.778 8.32226 142.17 7.65052L138.716 5.63292ZM137.577 9.94494C137.581 11.4886 137.964 12.9387 138.74 14.2507L142.183 12.2145C141.787 11.5449 141.58 10.7995 141.577 9.93412L137.577 9.94494ZM138.749 14.2662C139.514 15.5341 140.547 16.5554 141.824 17.311L143.861 13.8686C143.15 13.4477 142.595 12.8976 142.173 12.199L138.749 14.2662ZM141.824 17.311C143.142 18.0907 144.597 18.4714 146.146 18.4673L146.135 14.4673C145.275 14.4696 144.532 14.2653 143.861 13.8686L141.824 17.311Z" fill="white" mask="url(#path-1-outside-1_677_3151)"/>
</svg>
